<?xml version="1.0" encoding="utf-8"?>
<!-- Designed by Vexels.com - 2021 All Rights Reserved - https://vexels.com/terms-and-conditions/  -->
<svg version="1.1" id="Capa_1" xmlns="http://www.w3.org/2000/svg" xmlns:xlink="http://www.w3.org/1999/xlink" x="0px" y="0px"
	 viewBox="0 0 1200 1200" enable-background="new 0 0 1200 1200" xml:space="preserve">
<g>
	<path d="M600,50C296.274,50,50.04,296.232,50.04,599.96C50.04,903.768,296.274,1150,600,1150
		c303.728,0,549.959-246.232,549.959-550.04C1149.959,296.232,903.728,50,600,50z M599.999,1116.578
		c-285.261,0-516.534-231.274-516.534-516.62c0-285.261,231.273-516.535,516.534-516.535c285.346,0,516.622,231.274,516.622,516.535
		C1116.621,885.304,885.345,1116.578,599.999,1116.578z"/>
	<g>
		<path d="M622.528,138.681c-4.608,0-8.358,3.747-8.358,8.355v54.013l-42.897-59.366c-2.609-3.676-7.862-4.512-11.754-1.861
			c-2.261,1.659-3.566,4.392-3.403,7.213v80.123c0,4.682,3.807,8.493,8.493,8.493c4.53,0,8.351-3.888,8.351-8.493v-54.421
			l42.408,58.816c0.198,0.415,0.539,0.748,0.808,1.014c1.609,1.932,3.984,3.084,6.352,3.084c4.601,0,8.493-3.888,8.493-8.493
			v-80.123C631.021,142.506,627.129,138.681,622.528,138.681z"/>
		<path d="M614.494,1014.394c-5.04-2.396-11.336-4.314-19.417-5.881l-0.113,0.014c-7.224-1.336-13.377-3.495-16.887-5.923
			c-2.035-1.404-3.006-2.581-3.467-3.318c-0.595-0.957-0.829-1.903-0.829-3.382c0-2.846,1.687-5.597,4.87-7.958
			c3.871-2.868,9.301-4.512,14.909-4.512c8.039,0,14.583,3.927,21.7,8.674c1.808,1.212,3.97,1.623,6.068,1.163
			c2.084-0.45,3.864-1.694,4.97-3.47c1.205-1.726,1.623-3.842,1.198-5.955c-0.425-2.077-1.616-3.888-3.375-5.115l-0.333-0.213
			c-7.146-4.629-16.929-10.964-30.229-10.964c-9.06,0-17.723,2.659-24.401,7.486c-7.245,5.356-11.4,12.963-11.4,20.864
			c0,4.247,1.148,8.323,3.318,11.789c2.871,4.576,7.316,8.309,13.2,11.095c4.771,2.261,10.662,4.044,18.177,5.466l0.113-0.014
			c7.876,1.467,14.639,3.782,18.553,6.345c1.765,1.177,2.992,2.4,3.864,3.849c0.801,1.329,1.113,2.435,1.113,3.945
			c0,3.396-1.872,6.49-5.565,9.198c-4.339,3.183-10.513,4.948-17.035,4.931c-9.365,0-19.524-5.586-25.429-10.418
			c-1.652-1.358-3.772-1.964-5.898-1.786c-2.162,0.202-4.091,1.223-5.445,2.878l-0.014,0.018c-2.694,3.481-2.134,8.56,1.262,11.336
			c7.983,6.302,20.686,13.845,35.865,13.987c9.741,0,18.992-2.854,26.046-8.032c7.777-5.6,12.236-13.661,12.236-22.111
			c0-4.3-1.226-8.635-3.445-12.201C625.738,1021.469,621.108,1017.616,614.494,1014.394z"/>
	</g>
	<g>
		<path d="M1046.684,567.943c4.601,0,8.493-3.952,8.493-8.631c0-4.601-3.892-8.489-8.493-8.489h-45.095
			c-4.764,0-8.493,3.729-8.493,8.489v81.367c0,4.682,3.807,8.493,8.493,8.493l0.113-0.028c0.092,0.018,0.191,0.028,0.298,0.028
			h44.684c4.601,0,8.493-3.888,8.493-8.493c0-4.679-3.892-8.631-8.493-8.631h-36.467V608.49h31.228c4.686,0,8.493-3.871,8.493-8.631
			c0-4.604-3.892-8.493-8.493-8.493h-31.228v-23.423H1046.684z"/>
		<path d="M266.014,563.861c-0.829-2.063-2.439-3.708-4.417-4.516c-4.459-1.836-9.386,0.138-11.251,4.491l-26.053,61.861
			l-16.965-40.373c-1.439-3.172-4.58-5.221-7.997-5.221c-3.566,0-6.706,2.063-8.011,5.246l-16.95,40.352l-26.188-61.847
			c-0.815-2.077-2.425-3.697-4.53-4.558c-2.084-0.854-4.438-0.844-6.423,0.043c-2.063,0.78-3.686,2.332-4.573,4.37
			c-0.915,2.095-0.95,4.505-0.085,6.625l34.007,80.548c0.099,0.138,0.163,0.301,0.234,0.454c0.085,0.191,0.177,0.397,0.305,0.592
			v0.206l0.262,0.266c0.106,0.103,0.184,0.209,0.262,0.315c0.099,0.135,0.199,0.269,0.326,0.404c0.121,0.23,0.184,0.326,0.376,0.521
			l0.354,0.22c0.064,0.021,0.106,0.053,0.255,0.188c0.142,0.128,0.291,0.259,0.496,0.393l0.227,0.099
			c0.333,0.287,0.865,0.666,1.375,0.837l0.227,0.159l0.333,0.025c0.05,0.004,0.206,0.06,0.333,0.106l0.347,0.124l0.567,0.046
			c0.518,0.138,1.085,0.138,1.51,0.138c0.411,0,0.872,0,1.375-0.138h0.276l0.404-0.096c0.234-0.117,0.362-0.181,0.702-0.181h0.907
			v-0.365c0.163-0.11,0.326-0.245,0.496-0.383c0.085-0.071,0.177-0.145,0.269-0.216h0.354l0.269-0.266
			c0.199-0.198,0.447-0.45,0.588-0.521l0.503-0.252V653.2c0.028-0.05,0.05-0.11,0.071-0.17l0.525-0.528l0.184-0.014l0.248-0.503
			c0.156-0.312,0.44-0.89,0.553-1.251l17.234-40.774l17.206,40.714l0.071,0.22c0.121,0.386,0.276,0.858,0.567,1.226
			c0.106,0.174,0.262,0.323,0.468,0.422c0.043,0.064,0.092,0.124,0.135,0.188c0.071,0.092,0.142,0.181,0.184,0.255
			c0.163,0.33,0.22,0.436,0.468,0.674l0.213,0.149c0.099,0.053,0.199,0.138,0.319,0.234c0.163,0.124,0.34,0.266,0.553,0.408
			l0.199,0.078c0.319,0.308,0.794,0.695,1.425,0.861l0.184,0.149l0.347,0.025c0.05,0.004,0.22,0.064,0.347,0.113l0.326,0.117
			l0.574,0.046c0.496,0.138,0.957,0.138,1.375,0.138c0.539,0,1.014,0,1.51-0.138l0.461-0.057c0.255-0.085,0.652-0.216,0.787-0.22
			h0.907v-0.308c0.354-0.167,0.617-0.393,0.815-0.571c0.035-0.028,0.071-0.057,0.099-0.085h0.206l0.269-0.266
			c0.184-0.188,0.518-0.415,0.73-0.525l0.496-0.255v-0.34c0.028-0.053,0.057-0.113,0.078-0.184c0.255-0.259,0.489-0.521,0.624-0.762
			c0.525-0.518,0.851-1.418,0.886-1.535l33.787-80.392C266.836,568.32,266.864,565.963,266.014,563.861z"/>
	</g>
	<g>
		<path d="M896.064,910.079c0,21.176,31.256,21.212,31.256,0C927.32,888.903,896.064,888.868,896.064,910.079z"/>
		<path d="M896.064,286.686c0,21.176,31.257,21.212,31.257,0C927.321,265.51,896.064,265.475,896.064,286.686z"/>
	</g>
	<g>
		<path d="M272.671,910.079c0,21.176,31.256,21.212,31.257,0C303.927,888.903,272.671,888.868,272.671,910.079z"/>
		<path d="M272.671,286.686c0,21.176,31.257,21.212,31.257,0C303.928,265.51,272.671,265.475,272.671,286.686z"/>
	</g>
	<g>
		<path d="M896.073,910.791c0,21.177,31.256,21.212,31.257,0C927.33,889.615,896.073,889.58,896.073,910.791z"/>
		<path d="M896.064,287.454c0,21.176,31.257,21.212,31.257,0C927.321,266.277,896.064,266.242,896.064,287.454z"/>
	</g>
	<g>
		<path d="M272.68,910.791c0,21.177,31.256,21.212,31.257,0C303.937,889.615,272.68,889.58,272.68,910.791z"/>
		<path d="M272.671,287.454c0,21.176,31.257,21.212,31.257,0C303.928,266.277,272.671,266.242,272.671,287.454z"/>
	</g>
	<path d="M698.89,577.924l-60.259-133.436l-27.837-61.64c-3.102-6.871-12.822-6.975-16.072-0.172L472.165,639.271
		c-3.255,6.814,125.448,119.192,125.448,119.192c1.543-0.408,3.165-0.391,4.701,0.048c0,0,128.634-109.601,125.526-116.479
		L698.89,577.924z M599.684,676.853c-24.053-0.174-43.414-19.816-43.24-43.871c0.176-24.055,19.818-43.415,43.871-43.24
		c24.055,0.174,43.416,19.816,43.24,43.871C643.382,657.668,623.742,677.028,599.684,676.853z"/>
</g>
</svg>
