<?xml version="1.0" encoding="utf-8"?>
<!-- Designed by Vexels.com - 2016 All Rights Reserved - https://vexels.com/terms-and-conditions/  -->

<svg version="1.0" id="Capa_1" xmlns="http://www.w3.org/2000/svg" xmlns:xlink="http://www.w3.org/1999/xlink" x="0px" y="0px"
	 width="1200px" height="1200px" viewBox="0 0 1200 1200" enable-background="new 0 0 1200 1200" xml:space="preserve">
<g>
	<path d="M600,51.611C297.619,51.611,51.611,297.617,51.611,600c0,302.381,246.008,548.389,548.389,548.389
		c302.383,0,548.389-246.008,548.389-548.389C1148.389,297.617,902.383,51.611,600,51.611z M1110.745,600
		c0,281.632-229.112,510.757-510.745,510.757c-281.63,0-510.757-229.125-510.757-510.757C89.243,318.37,318.37,89.256,600,89.256
		C881.632,89.256,1110.745,318.37,1110.745,600z"/>
	<polygon points="649.037,423.862 649.037,511.898 245.887,511.898 245.887,688.097 649.037,688.097 649.037,776.138 
		954.115,599.998 	"/>
</g>
</svg>
